<?xml version="1.0" standalone="no"?>
<!DOCTYPE svg PUBLIC "-//W3C//DTD SVG 20010904//EN"
 "http://www.w3.org/TR/2001/REC-SVG-20010904/DTD/svg10.dtd">
<svg version="1.0" xmlns="http://www.w3.org/2000/svg"
 width="48.000000pt" height="48.000000pt" viewBox="0 0 48.000000 48.000000"
 preserveAspectRatio="xMidYMid meet">

<g transform="translate(0.000000,48.000000) scale(0.100000,-0.100000)"
fill="#000000" stroke="none">
<path d="M61 381 c-19 -19 -21 -33 -21 -141 0 -161 1 -162 148 -158 135 4 139
22 5 26 -53 1 -103 8 -110 14 -9 7 -13 42 -13 118 0 110 4 124 43 131 26 6 22
23 -7 27 -15 2 -33 -5 -45 -17z"/>
<path d="M180 385 c0 -12 18 -15 103 -15 100 0 127 -7 127 -35 0 -6 -38 -31
-85 -57 l-84 -46 -67 35 c-43 23 -69 32 -76 25 -9 -9 26 -33 110 -76 l33 -17
85 45 84 46 0 -79 c0 -84 -6 -96 -50 -103 -36 -4 -31 -22 7 -26 22 -2 38 3 52
17 19 19 21 33 21 141 0 160 0 160 -150 160 -91 0 -110 -3 -110 -15z"/>
</g>
</svg>
