<svg xmlns="http://www.w3.org/2000/svg" xmlns:xlink="http://www.w3.org/1999/xlink" version="1.1" width="64px" height="80px" style="shape-rendering:geometricPrecision; text-rendering:geometricPrecision; image-rendering:optimizeQuality; fill-rule:evenodd; clip-rule:evenodd">
<g><path style="opacity:0.863" fill="#fefffe" d="M 22.5,3.5 C 40.8662,0.177657 53.5328,7.01099 60.5,24C 40.8333,24.6667 21.1667,24.6667 1.5,24C 5.11037,13.5547 12.1104,6.72135 22.5,3.5 Z M 28.5,9.5 C 30.4136,12.6843 31.0803,16.351 30.5,20.5C 28.076,20.8076 25.7427,20.4742 23.5,19.5C 24.6528,15.861 26.3195,12.5277 28.5,9.5 Z M 35.5,9.5 C 39.2613,11.6412 41.5946,14.9745 42.5,19.5C 40.2573,20.4742 37.924,20.8076 35.5,20.5C 35.5,16.8333 35.5,13.1667 35.5,9.5 Z M 19.5,11.5 C 20.2389,11.369 20.9056,11.5357 21.5,12C 19.8042,14.5875 18.8042,17.4208 18.5,20.5C 16.396,20.7989 14.396,20.4656 12.5,19.5C 14.8558,16.8136 17.1891,14.147 19.5,11.5 Z M 45.5,12.5 C 48.1456,14.4789 50.4789,16.8122 52.5,19.5C 50.9547,20.4519 49.288,20.7852 47.5,20.5C 47.0372,17.779 46.3705,15.1123 45.5,12.5 Z"/></g>
<g><path style="opacity:0.761" fill="#fefffe" d="M 10.5,26.5 C 12.451,26.2267 13.951,26.8934 15,28.5C 15.5194,27.4844 16.3527,26.8178 17.5,26.5C 19.9376,27.394 22.4376,27.394 25,26.5C 26.6581,26.6752 27.9914,27.3418 29,28.5C 30.6667,25.8333 32.3333,25.8333 34,28.5C 35.1803,27.3159 36.6803,26.6493 38.5,26.5C 40.9856,27.1214 43.3189,27.1214 45.5,26.5C 46.6473,26.8178 47.4806,27.4844 48,28.5C 49.049,26.8934 50.549,26.2267 52.5,26.5C 52.196,29.5219 51.696,32.5219 51,35.5C 48.4152,36.8846 46.4152,36.2179 45,33.5C 44.5172,34.448 44.3505,35.448 44.5,36.5C 42.8333,36.5 41.1667,36.5 39.5,36.5C 39.2912,30.7389 38.4578,30.4055 37,35.5C 34.9252,36.8952 33.0919,36.5619 31.5,34.5C 27.5705,37.592 25.2371,36.592 24.5,31.5C 23.5481,33.0453 23.2148,34.712 23.5,36.5C 21.8333,36.5 20.1667,36.5 18.5,36.5C 18.6495,35.448 18.4828,34.448 18,33.5C 16.5848,36.2179 14.5848,36.8846 12,35.5C 11.304,32.5219 10.804,29.5219 10.5,26.5 Z"/></g>
<g><path style="opacity:0.861" fill="#fefffe" d="M 1.5,39.5 C 20.9957,38.3376 40.6624,38.1709 60.5,39C 53.542,56.1489 40.8753,62.8155 22.5,59C 12.0805,56.0773 5.0805,49.5773 1.5,39.5 Z M 12.5,42.5 C 14.5,42.5 16.5,42.5 18.5,42.5C 18.8042,45.5792 19.8042,48.4125 21.5,51C 21.1667,51.1667 20.8333,51.3333 20.5,51.5C 17.0743,49.0801 14.4076,46.0801 12.5,42.5 Z M 23.5,42.5 C 25.8333,42.5 28.1667,42.5 30.5,42.5C 30.2607,56.6071 27.9273,56.6071 23.5,42.5 Z M 35.5,42.5 C 37.924,42.1924 40.2573,42.5258 42.5,43.5C 37.255,56.8046 34.9216,56.4713 35.5,42.5 Z M 45.5,50.5 C 46.3705,47.8877 47.0372,45.221 47.5,42.5C 49.288,42.2148 50.9547,42.5481 52.5,43.5C 50.4789,46.1878 48.1456,48.5211 45.5,50.5 Z"/></g>
</svg>